<svg xmlns="http://www.w3.org/2000/svg" viewBox="0 0 1024 768"><defs><style>.a{fill:#25b9a6;}.b{fill:#fdde00;}.c{fill:#624d9f;}.d{fill:#ee4358;}.e{fill:#1eb9a5;}.f{fill:#fadf00;}</style></defs><title>Artboard 1</title><path class="a" d="M798.4,223.36C743.4,141.17,495.72-9.9,349.47,98.89c-100.08,74.44-10.63,255,60.15,362.83,69.89,106.46,219.26,154.44,322.75,92.36C824.8,498.64,869.22,329.21,798.4,223.36ZM682.3,435.5C598.2,483,514.21,452.21,466.71,379.87c-48.09-73.24-108.87-196-40.87-246.54,99.38-73.92,267.68,28.73,305.05,84.58C779,289.83,756.89,393.4,682.3,435.5Z"/><path class="b" d="M672.64,670.16c82.19-55,233.26-302.68,124.47-448.94-74.44-100.07-255-10.62-362.83,60.15-106.46,69.9-154.44,219.27-92.36,322.75C397.36,696.55,566.79,741,672.64,670.16ZM460.5,554.06C413,470,443.79,386,516.13,338.47c73.24-48.09,196-108.87,246.54-40.87,73.92,99.38-28.73,267.67-84.58,305C606.17,650.76,502.6,628.65,460.5,554.06Z"/><path class="c" d="M225.84,544.39c55,82.2,302.68,233.27,448.94,124.48,100.07-74.44,10.62-255-60.15-362.83-69.9-106.46-219.27-154.44-322.75-92.37C199.45,269.12,155,438.55,225.84,544.39Zm116.1-212.14c84.11-47.47,168.1-16.7,215.59,55.63,48.09,73.25,108.87,196,40.87,246.55-99.38,73.92-267.67-28.73-305-84.58C245.24,477.92,267.35,374.36,341.94,332.25Z"/><path class="d" d="M351.61,97.6c-82.2,55-233.27,302.68-124.48,448.93,74.44,100.08,255,10.63,362.83-60.15,106.46-69.89,154.44-219.26,92.37-322.75C626.88,71.2,457.45,26.78,351.61,97.6ZM563.75,213.7c47.47,84.1,16.7,168.09-55.63,215.59-73.25,48.09-196,108.87-246.55,40.87-73.92-99.38,28.73-267.68,84.58-305C418.08,117,521.64,139.11,563.75,213.7Z"/><path class="e" d="M792.54,216.58c-25.58-30.38-62.12-40.93-103.35-39l-.06,0c-66.44-51.22-186-101.17-263.55-43.46a65.25,65.25,0,0,0-8,6.89l-.07,0A151.94,151.94,0,0,0,345.83,166c-12.22,8.22-26.72,22.65-41.1,41.32-2-41.73,8.91-78.66,40.23-104.29,1.36-1.09,2.72-2.18,4.18-3.24C491.05-5.73,728.22,133.17,792.54,216.58Z"/><path class="e" d="M719.24,561.15l-.07,0c-28.4,14.11-59.59,20.6-91.33,20.39-46.05-.19-93.29-14.33-134.4-39.49a272.75,272.75,0,0,1-53.11-42.28,245.4,245.4,0,0,1-19.62-22.59c5.73-2.43,11.4-5.09,17-7.81a627.45,627.45,0,0,0,70.36-40.14c.92-.65,1.89-1.23,2.74-1.84,25.5,19.1,55.2,30.12,86.88,30.79a158.68,158.68,0,0,0,30.34-2.54,177,177,0,0,0,54.19-20.21c.94-.48,1.77-1,2.67-1.54,50.21-29.81,75.74-87.93,70.79-144.47a79,79,0,0,1,6.93,8.08C820.3,375.17,770.52,494.67,719.24,561.15Z"/><path class="f" d="M460.27,553.7c.49.94,1,1.77,1.54,2.67,29.81,50.2,87.93,75.73,144.41,70.82a78,78,0,0,1-8,6.9c-77.53,57.67-197.14,7.86-263.61-43.42l0-.06c-14.11-28.4-20.6-59.59-20.39-91.33.22-46.16,14.4-93.33,39.55-134.45A269.72,269.72,0,0,1,396,311.66a154.61,154.61,0,0,1,30.37-2.48,626.73,626.73,0,0,0,40.14,70.37c.65.92,1.24,1.88,1.85,2.74-19.11,25.49-30.06,55.16-30.8,86.88a158.51,158.51,0,0,0,2.54,30.33A177,177,0,0,0,460.27,553.7Z"/></svg>